<svg width="25" height="25" viewBox="0 0 25 25" fill="none" xmlns="http://www.w3.org/2000/svg">
<path d="M9.69723 22.4886L12.0272 20.5286C12.3772 20.2286 12.9572 20.2286 13.3072 20.5286L15.6372 22.4886C16.1772 22.7586 16.8372 22.4886 17.0372 21.9086L17.4772 20.5786C17.5872 20.2586 17.4772 19.7886 17.2372 19.5486L14.9672 17.2686C14.7972 17.1086 14.6672 16.7886 14.6672 16.5586V13.7086C14.6672 13.2886 14.9772 13.0886 15.3672 13.2486L20.2772 15.3686C21.0472 15.6986 21.6772 15.2886 21.6772 14.4486V13.1586C21.6772 12.4886 21.1772 11.7186 20.5572 11.4586L14.9672 9.04859C14.8072 8.97859 14.6672 8.76859 14.6672 8.58859V5.58859C14.6672 4.64859 13.9772 3.53859 13.1372 3.10859C12.8372 2.95859 12.4872 2.95859 12.1872 3.10859C11.3472 3.53859 10.6572 4.65859 10.6572 5.59859V8.59859C10.6572 8.77859 10.5172 8.98859 10.3572 9.05859L4.77723 11.4686C4.15723 11.7186 3.65723 12.4886 3.65723 13.1586V14.4486C3.65723 15.2886 4.28723 15.6986 5.05723 15.3686L9.96723 13.2486C10.3472 13.0786 10.6672 13.2886 10.6672 13.7086V16.5586C10.6672 16.7886 10.5372 17.1086 10.3772 17.2686L8.10723 19.5486C7.86723 19.7886 7.75723 20.2486 7.86723 20.5786L8.30723 21.9086C8.48723 22.4886 9.14723 22.7686 9.69723 22.4886Z" stroke="#E5A13D" stroke-width="1.5" stroke-linecap="round" stroke-linejoin="round"/>
</svg>
