<svg width="25" height="25" viewBox="0 0 25 25" fill="none" xmlns="http://www.w3.org/2000/svg">
<path d="M9.69723 3.10906L12.0272 5.06906C12.3772 5.36906 12.9572 5.36906 13.3072 5.06906L15.6372 3.10906C16.1772 2.83906 16.8372 3.10906 17.0372 3.68906L17.4772 5.01906C17.5872 5.33906 17.4772 5.80906 17.2372 6.04906L14.9672 8.32906C14.7972 8.48906 14.6672 8.80906 14.6672 9.03906V11.8891C14.6672 12.3091 14.9772 12.5091 15.3672 12.3491L20.2772 10.2291C21.0472 9.89906 21.6772 10.3091 21.6772 11.1491V12.4391C21.6772 13.1091 21.1772 13.8791 20.5572 14.1391L14.9672 16.5491C14.8072 16.6191 14.6672 16.8291 14.6672 17.0091V20.0091C14.6672 20.9491 13.9772 22.0591 13.1372 22.4891C12.8372 22.6391 12.4872 22.6391 12.1872 22.4891C11.3472 22.0591 10.6572 20.9391 10.6572 19.9991V16.9991C10.6572 16.8191 10.5172 16.6091 10.3572 16.5391L4.77723 14.1291C4.15723 13.8791 3.65723 13.1091 3.65723 12.4391V11.1491C3.65723 10.3091 4.28723 9.89906 5.05723 10.2291L9.96723 12.3491C10.3472 12.5191 10.6672 12.3091 10.6672 11.8891V9.03906C10.6672 8.80906 10.5372 8.48906 10.3772 8.32906L8.10723 6.04906C7.86723 5.80906 7.75723 5.34906 7.86723 5.01906L8.30723 3.68906C8.48723 3.10906 9.14723 2.82906 9.69723 3.10906Z" stroke="#E5A13D" stroke-width="1.5" stroke-linecap="round" stroke-linejoin="round"/>
</svg>
