<svg width="21" height="21" viewBox="0 0 21 21" fill="none" xmlns="http://www.w3.org/2000/svg">
<path d="M7.38184 1.9917V4.4917" stroke="#E5A13D" stroke-width="1.5" stroke-miterlimit="10" stroke-linecap="round" stroke-linejoin="round"/>
<path d="M14.0479 1.9917V4.4917" stroke="#E5A13D" stroke-width="1.5" stroke-miterlimit="10" stroke-linecap="round" stroke-linejoin="round"/>
<path d="M14.0482 3.2417C16.8232 3.3917 18.2148 4.45003 18.2148 8.3667V13.5167C18.2148 16.95 17.3815 18.6667 13.2148 18.6667H8.21484C4.04818 18.6667 3.21484 16.95 3.21484 13.5167V8.3667C3.21484 4.45003 4.60651 3.40003 7.38151 3.2417H14.0482Z" stroke="#E5A13D" stroke-width="1.5" stroke-miterlimit="10" stroke-linecap="round" stroke-linejoin="round"/>
<path d="M18.0062 14.9917H3.42285" stroke="#E5A13D" stroke-width="1.5" stroke-miterlimit="10" stroke-linecap="round" stroke-linejoin="round"/>
<path d="M10.7152 7.2002C9.69017 7.2002 8.8235 7.75853 8.8235 8.84186C8.8235 9.35853 9.06517 9.7502 9.43184 10.0002C8.9235 10.3002 8.63184 10.7835 8.63184 11.3502C8.63184 12.3835 9.4235 13.0252 10.7152 13.0252C11.9985 13.0252 12.7985 12.3835 12.7985 11.3502C12.7985 10.7835 12.5068 10.2919 11.9902 10.0002C12.3652 9.74186 12.5985 9.35853 12.5985 8.84186C12.5985 7.75853 11.7402 7.2002 10.7152 7.2002ZM10.7152 9.56686C10.2818 9.56686 9.96517 9.30853 9.96517 8.9002C9.96517 8.48353 10.2818 8.24186 10.7152 8.24186C11.1485 8.24186 11.4652 8.48353 11.4652 8.9002C11.4652 9.30853 11.1485 9.56686 10.7152 9.56686ZM10.7152 11.9919C10.1652 11.9919 9.76517 11.7169 9.76517 11.2169C9.76517 10.7169 10.1652 10.4502 10.7152 10.4502C11.2652 10.4502 11.6652 10.7252 11.6652 11.2169C11.6652 11.7169 11.2652 11.9919 10.7152 11.9919Z" fill="#E5A13D"/>
</svg>
