<svg width="24" height="25" viewBox="0 0 24 25" fill="none" xmlns="http://www.w3.org/2000/svg">
<path d="M21.97 19.0439C21.97 19.4039 21.89 19.7739 21.72 20.1339C21.55 20.4939 21.33 20.8339 21.04 21.1539C20.55 21.6939 20.01 22.0839 19.4 22.3339C18.8 22.5839 18.15 22.7139 17.45 22.7139C16.43 22.7139 15.34 22.4739 14.19 21.9839C13.04 21.4939 11.89 20.8339 10.75 20.0039C9.6 19.1639 8.51 18.2339 7.47 17.2039C6.44 16.1639 5.51 15.0739 4.68 13.9339C3.86 12.7939 3.2 11.6539 2.72 10.5239C2.24 9.38387 2 8.29387 2 7.25387C2 6.57387 2.12 5.92387 2.36 5.32387C2.6 4.71387 2.98 4.15387 3.51 3.65387C4.15 3.02387 4.85 2.71387 5.59 2.71387C5.87 2.71387 6.15 2.77387 6.4 2.89387C6.66 3.01387 6.89 3.19387 7.07 3.45387L9.39 6.72387C9.57 6.97387 9.7 7.20387 9.79 7.42387C9.88 7.63387 9.93 7.84387 9.93 8.03387C9.93 8.27387 9.86 8.51387 9.72 8.74387C9.59 8.97387 9.4 9.21387 9.16 9.45387L8.4 10.2439C8.29 10.3539 8.24 10.4839 8.24 10.6439C8.24 10.7239 8.25 10.7939 8.27 10.8739C8.3 10.9539 8.33 11.0139 8.35 11.0739C8.53 11.4039 8.84 11.8339 9.28 12.3539C9.73 12.8739 10.21 13.4039 10.73 13.9339C11.27 14.4639 11.79 14.9539 12.32 15.4039C12.84 15.8439 13.27 16.1439 13.61 16.3239C13.66 16.3439 13.72 16.3739 13.79 16.4039C13.87 16.4339 13.95 16.4439 14.04 16.4439C14.21 16.4439 14.34 16.3839 14.45 16.2739L15.21 15.5239C15.46 15.2739 15.7 15.0839 15.93 14.9639C16.16 14.8239 16.39 14.7539 16.64 14.7539C16.83 14.7539 17.03 14.7939 17.25 14.8839C17.47 14.9739 17.7 15.1039 17.95 15.2739L21.26 17.6239C21.52 17.8039 21.7 18.0139 21.81 18.2639C21.91 18.5139 21.97 18.7639 21.97 19.0439Z" stroke="white" stroke-width="1.5" stroke-miterlimit="10"/>
<path d="M18.5 9.71387C18.5 9.11387 18.03 8.19387 17.33 7.44387C16.69 6.75387 15.84 6.21387 15 6.21387" stroke="white" stroke-width="1.5" stroke-linecap="round" stroke-linejoin="round"/>
<path d="M22 9.71387C22 5.84387 18.87 2.71387 15 2.71387" stroke="white" stroke-width="1.5" stroke-linecap="round" stroke-linejoin="round"/>
</svg>
