<svg width="15" height="15" viewBox="0 0 15 15" fill="none" xmlns="http://www.w3.org/2000/svg">
<path fill-rule="evenodd" clip-rule="evenodd" d="M12.8838 3.53065C12.9461 3.58522 12.997 3.65164 13.0334 3.72604C13.0698 3.80044 13.0911 3.88134 13.096 3.96404C13.1009 4.04674 13.0893 4.12958 13.0619 4.20776C13.0344 4.28593 12.9918 4.35787 12.9363 4.4194L6.36503 11.7125C6.3093 11.7743 6.24179 11.8243 6.16647 11.8596C6.09115 11.895 6.00953 11.9149 5.9264 11.9183C5.84328 11.9217 5.76031 11.9084 5.68238 11.8793C5.60444 11.8502 5.5331 11.8058 5.47253 11.7488L1.67003 8.1694C1.55596 8.06048 1.48689 7.91273 1.47647 7.75535C1.46606 7.59797 1.51506 7.4424 1.61378 7.3194C1.66707 7.25271 1.73336 7.19755 1.80862 7.15727C1.88388 7.11698 1.96654 7.09241 2.05159 7.08505C2.13663 7.07768 2.22229 7.08768 2.30335 7.11442C2.38442 7.14117 2.4592 7.18412 2.52316 7.24065L5.47316 9.8944C5.59633 10.0053 5.75849 10.0627 5.92399 10.054C6.08948 10.0453 6.24475 9.97128 6.35566 9.84815L12.0075 3.58127C12.1176 3.4593 12.2712 3.38554 12.4351 3.37595C12.5991 3.36635 12.7603 3.4217 12.8838 3.53002V3.53065Z" fill="black"/>
</svg>
