<svg width="20" height="20" viewBox="0 0 20 20" fill="none" xmlns="http://www.w3.org/2000/svg">
<path d="M13.1251 7.7875L10.8814 10L13.1251 12.2125C13.1875 12.271 13.2373 12.3416 13.2714 12.4201C13.3054 12.4986 13.3229 12.5832 13.3229 12.6688C13.3229 12.7543 13.3054 12.8389 13.2714 12.9174C13.2373 12.9959 13.1875 13.0665 13.1251 13.125C13.0667 13.1829 12.9974 13.2288 12.9213 13.2599C12.8451 13.291 12.7636 13.3067 12.6814 13.3063C12.5174 13.3056 12.3603 13.2405 12.2439 13.125L10.0001 10.8813L7.7876 13.125C7.67119 13.2405 7.51406 13.3056 7.3501 13.3063C7.26785 13.3067 7.18631 13.291 7.11016 13.2599C7.03401 13.2288 6.96475 13.1829 6.90635 13.125C6.78994 13.0079 6.72461 12.8495 6.72461 12.6844C6.72461 12.5193 6.78994 12.3609 6.90635 12.2438L9.11885 10L6.90635 7.7875C6.80396 7.66794 6.75046 7.51414 6.75653 7.35685C6.76261 7.19955 6.82782 7.05034 6.93912 6.93903C7.05043 6.82772 7.19965 6.76251 7.35694 6.75643C7.51424 6.75036 7.66804 6.80386 7.7876 6.90625L10.0001 9.11875L12.2126 6.90625C12.2705 6.84634 12.3396 6.79841 12.416 6.7652C12.4923 6.73198 12.5745 6.71414 12.6578 6.71269C12.7411 6.71124 12.8238 6.72621 12.9013 6.75674C12.9788 6.78727 13.0496 6.83277 13.1095 6.89063C13.1694 6.94849 13.2173 7.01759 13.2505 7.09398C13.2837 7.17037 13.3016 7.25255 13.303 7.33583C13.3045 7.41911 13.2895 7.50187 13.259 7.57936C13.2285 7.65686 13.183 7.72759 13.1251 7.7875ZM16.1876 16.1875C14.9639 17.4111 13.4048 18.2444 11.7074 18.5819C10.0101 18.9195 8.25085 18.7462 6.65205 18.0839C5.05324 17.4216 3.68673 16.3001 2.72531 14.8611C1.76389 13.4222 1.25073 11.7306 1.25073 10C1.25073 8.26946 1.76389 6.57777 2.72531 5.13886C3.68673 3.69995 5.05324 2.57844 6.65205 1.91614C8.25085 1.25385 10.0101 1.08052 11.7074 1.41807C13.4048 1.75562 14.9639 2.58888 16.1876 3.8125C17.0002 4.62503 17.6448 5.58966 18.0846 6.65132C18.5244 7.71298 18.7507 8.85086 18.7507 10C18.7507 11.1491 18.5244 12.287 18.0846 13.3487C17.6448 14.4103 17.0002 15.375 16.1876 16.1875ZM15.3064 4.69375C14.2564 3.64747 12.92 2.93574 11.4659 2.64847C10.0117 2.36119 8.50505 2.51123 7.13613 3.07965C5.7672 3.64807 4.59739 4.60938 3.77444 5.84218C2.95148 7.07499 2.51227 8.524 2.51227 10.0063C2.51227 11.4885 2.95148 12.9375 3.77444 14.1703C4.59739 15.4031 5.7672 16.3644 7.13613 16.9329C8.50505 17.5013 10.0117 17.6513 11.4659 17.364C12.92 17.0768 14.2564 16.365 15.3064 15.3188C16.0056 14.622 16.5603 13.794 16.9389 12.8824C17.3174 11.9708 17.5123 10.9934 17.5123 10.0063C17.5123 9.01915 17.3174 8.04175 16.9389 7.13011C16.5603 6.21848 16.0056 5.39053 15.3064 4.69375Z" fill="black"/>
</svg>
