<svg width="21" height="21" viewBox="0 0 21 21" fill="none" xmlns="http://www.w3.org/2000/svg">
<path fill-rule="evenodd" clip-rule="evenodd" d="M3.00033 12.3516C3.46056 12.3516 3.83366 12.7247 3.83366 13.1849V16.5182C3.83366 16.7392 3.92146 16.9512 4.07774 17.1075C4.23402 17.2638 4.44598 17.3516 4.66699 17.3516H16.3337C16.5547 17.3516 16.7666 17.2638 16.9229 17.1075C17.0792 16.9512 17.167 16.7392 17.167 16.5182V13.1849C17.167 12.7247 17.5401 12.3516 18.0003 12.3516C18.4606 12.3516 18.8337 12.7247 18.8337 13.1849V16.5182C18.8337 17.1813 18.5703 17.8172 18.1014 18.286C17.6326 18.7548 16.9967 19.0182 16.3337 19.0182H4.66699C4.00395 19.0182 3.36807 18.7548 2.89923 18.286C2.43038 17.8172 2.16699 17.1813 2.16699 16.5182V13.1849C2.16699 12.7247 2.54009 12.3516 3.00033 12.3516Z" fill="#203638"/>
<path fill-rule="evenodd" clip-rule="evenodd" d="M5.74408 8.42865C6.06951 8.10321 6.59715 8.10321 6.92259 8.42865L10.5 12.0061L14.0774 8.42865C14.4028 8.10321 14.9305 8.10321 15.2559 8.42865C15.5814 8.75408 15.5814 9.28172 15.2559 9.60716L11.0893 13.7738C10.7638 14.0993 10.2362 14.0993 9.91074 13.7738L5.74408 9.60716C5.41864 9.28172 5.41864 8.75408 5.74408 8.42865Z" fill="#203638"/>
<path fill-rule="evenodd" clip-rule="evenodd" d="M10.5003 2.35156C10.9606 2.35156 11.3337 2.72466 11.3337 3.1849V13.1849C11.3337 13.6451 10.9606 14.0182 10.5003 14.0182C10.0401 14.0182 9.66699 13.6451 9.66699 13.1849V3.1849C9.66699 2.72466 10.0401 2.35156 10.5003 2.35156Z" fill="#203638"/>
</svg>
