<svg width="21" height="21" viewBox="0 0 21 21" fill="none" xmlns="http://www.w3.org/2000/svg">
<path d="M2.62305 6.80867V14.917C2.62305 16.5003 3.74805 17.1503 5.11471 16.367L7.07305 15.2503C7.49805 15.0087 8.20638 14.9837 8.64805 15.2087L13.023 17.4003C13.4647 17.617 14.173 17.6003 14.598 17.3587L18.2064 15.292C18.6647 15.0253 19.048 14.3753 19.048 13.842V5.73367C19.048 4.15034 17.923 3.50034 16.5564 4.28367L14.598 5.40034C14.173 5.642 13.4647 5.667 13.023 5.442L8.64805 3.25867C8.20638 3.042 7.49805 3.05867 7.07305 3.30034L3.46471 5.367C2.99805 5.63367 2.62305 6.28367 2.62305 6.80867Z" stroke="#E5A13D" stroke-width="1.5" stroke-linecap="round" stroke-linejoin="round"/>
<path d="M7.84863 3.65869V14.492" stroke="#E5A13D" stroke-width="1.5" stroke-linecap="round" stroke-linejoin="round"/>
<path d="M13.8232 5.8418V16.9918" stroke="#E5A13D" stroke-width="1.5" stroke-linecap="round" stroke-linejoin="round"/>
</svg>
