<svg width="43" height="42" viewBox="0 0 43 42" fill="none" xmlns="http://www.w3.org/2000/svg">
<path d="M41.5555 22.4909C41.5011 22.3885 41.4198 22.3027 41.3203 22.243C41.2209 22.1832 41.107 22.1516 40.991 22.1516H34.8227L31.5165 17.0988L31.5163 17.0983L30.8523 16.0837C29.9225 14.6625 28.3535 13.8141 26.6552 13.8141H26.1436L24.1382 9.8032C24.0611 9.65366 23.9282 9.54052 23.7683 9.4883C23.6084 9.43608 23.4343 9.44899 23.2839 9.52423C23.1334 9.59947 23.0187 9.73097 22.9645 9.89024C22.9103 10.0495 22.9211 10.2237 22.9945 10.3751L24.714 13.8141H20.293C20.1235 13.8141 19.9609 13.8815 19.841 14.0013L18.9372 14.9051H14.0114L13.1077 14.0012C12.9878 13.8814 12.8252 13.8141 12.6556 13.8141H10.9726L10.0025 9.93395C9.96798 9.79563 9.88816 9.67283 9.77578 9.58509C9.66341 9.49735 9.52492 9.44969 9.38234 9.44971H6.10914C5.93959 9.44971 5.77698 9.51706 5.65709 9.63695C5.5372 9.75684 5.46984 9.91945 5.46984 10.089V13.814H4.21853C3.51666 13.814 2.9026 14.3125 2.75863 14.9993L1.68043 20.1388L1.67932 20.1441L1.20624 22.3994C1.15641 22.6364 1.14373 22.8798 1.16865 23.1207L1.96752 30.8849C1.98372 31.0423 2.05771 31.1881 2.17519 31.2941C2.29266 31.4001 2.44527 31.4588 2.60349 31.4587L3.2878 31.4587V31.9104C3.2878 32.08 3.35515 32.2426 3.47504 32.3625C3.59493 32.4824 3.75754 32.5497 3.92709 32.5497H35.568C35.9212 32.5497 36.2073 32.2636 36.2073 31.9104C36.2067 31.3268 36.3813 30.7563 36.7085 30.2731L41.5207 23.1487C41.5857 23.0526 41.6232 22.9405 41.6293 22.8247C41.6355 22.7088 41.6099 22.5934 41.5555 22.4909ZM35.649 29.5573C35.3008 30.0717 35.0713 30.6571 34.9772 31.271H4.56639V30.8193C4.56632 30.6497 4.49893 30.4872 4.37904 30.3673C4.25914 30.2474 4.09655 30.18 3.92701 30.18L3.18031 30.1801L2.82256 26.7032H35.568C35.9211 26.7032 36.2072 26.4171 36.2072 26.0639C36.2072 25.7108 35.9211 25.4246 35.568 25.4246H2.69103L2.48578 23.4301H27.3935C27.7466 23.4301 28.0328 23.144 28.0328 22.7908C28.0328 22.4377 27.7466 22.1515 27.3935 22.1515H2.56462L2.82511 20.9098H11.5646C11.9176 20.9098 12.2039 20.6237 12.2039 20.2705C12.2039 19.9174 11.9176 19.6312 11.5646 19.6312H3.09336L3.41557 18.0951H11.5645C11.9175 18.0951 12.2038 17.809 12.2038 17.4558C12.2038 17.1027 11.9175 16.8165 11.5645 16.8165H3.68382L4.00994 15.2619C4.02016 15.2141 4.04643 15.1712 4.08438 15.1404C4.12232 15.1097 4.16966 15.0928 4.21853 15.0927H8.29127C8.64434 15.0927 8.93057 14.8065 8.93057 14.4534C8.93057 14.1002 8.64434 13.8141 8.29127 13.8141H6.74844V10.7284H8.88318L9.8532 14.6085C9.85389 14.6111 9.85508 14.6133 9.85576 14.6158C9.8642 14.648 9.87469 14.6795 9.8879 14.7095C9.88935 14.7128 9.89114 14.716 9.89259 14.7193C9.90554 14.7475 9.92029 14.7746 9.937 14.8005C9.93879 14.8032 9.94024 14.8061 9.94203 14.8088C9.95899 14.8342 9.97825 14.8578 9.99862 14.8805C10.0031 14.8854 10.0073 14.8903 10.0118 14.8951C10.0325 14.9166 10.0545 14.9367 10.0779 14.9551C10.0822 14.9585 10.0867 14.9616 10.0911 14.965C10.1417 15.0029 10.1977 15.033 10.2572 15.0545C10.2618 15.0561 10.2663 15.058 10.2709 15.0595C10.2994 15.069 10.3288 15.0765 10.359 15.082C10.3657 15.0832 10.3723 15.084 10.379 15.0851C10.4079 15.0893 10.4373 15.0921 10.4672 15.0925C10.4691 15.0925 10.4709 15.093 10.4729 15.093L10.4756 15.0928H12.3908L13.2946 15.9966C13.3539 16.056 13.4244 16.1031 13.502 16.1352C13.5795 16.1674 13.6627 16.1839 13.7466 16.1839H19.2019C19.3715 16.1839 19.5341 16.1166 19.654 15.9967L20.5578 15.0928H25.7464L25.7488 15.093L25.7517 15.0928H26.655C27.9204 15.0928 29.0895 15.725 29.7823 16.7838L29.8039 16.8168H26.8395C26.4864 16.8168 26.2002 17.1029 26.2002 17.4561C26.2002 17.8092 26.4864 18.0954 26.8395 18.0954H30.6405L31.6456 19.6315H26.8395C26.4864 19.6315 26.2002 19.9176 26.2002 20.2708C26.2002 20.6239 26.4864 20.9101 26.8395 20.9101H32.4822L33.2946 22.1518H30.1126C30.0287 22.1518 29.9455 22.1683 29.868 22.2004C29.7904 22.2325 29.7199 22.2796 29.6605 22.339C29.6012 22.3984 29.5541 22.4688 29.522 22.5464C29.4898 22.624 29.4733 22.7071 29.4733 22.7911C29.4733 23.1442 29.7595 23.4304 30.1126 23.4304H34.4761L34.4775 23.4305L34.4787 23.4304H39.7877L35.649 29.5573ZM24.2056 17.4559C24.2056 17.8091 23.9194 18.0952 23.5663 18.0952H14.8378C14.4847 18.0952 14.1985 17.8091 14.1985 17.4559C14.1985 17.1028 14.4847 16.8166 14.8378 16.8166H23.5663C23.7359 16.8166 23.8985 16.884 24.0184 17.0039C24.1382 17.1238 24.2056 17.2864 24.2056 17.4559ZM24.2056 20.2705C24.2056 20.6237 23.9194 20.9098 23.5663 20.9098H14.8378C14.4847 20.9098 14.1985 20.6237 14.1985 20.2705C14.1985 19.9174 14.4847 19.6312 14.8378 19.6312H23.5663C23.7359 19.6312 23.8985 19.6986 24.0184 19.8185C24.1382 19.9384 24.2056 20.101 24.2056 20.2705Z" fill="#1C1C1C"/>
</svg>
