<svg width="43" height="43" viewBox="0 0 43 43" fill="none" xmlns="http://www.w3.org/2000/svg">
<rect width="42.5375" height="42.5375" rx="8.2" fill="#E5A13D"/>
<path d="M22.4459 29.4689V13.0689C22.4459 12.4179 21.9182 11.8902 21.2672 11.8902C20.6162 11.8902 20.0884 12.4179 20.0884 13.0689V29.4689C20.0884 30.12 20.6162 30.6477 21.2672 30.6477C21.9182 30.6477 22.4459 30.12 22.4459 29.4689Z" fill="white" stroke="white" stroke-width="0.3075" stroke-linecap="round"/>
<path d="M29.468 20.0904H13.068C12.417 20.0904 11.8892 20.6181 11.8892 21.2691C11.8892 21.9201 12.417 22.4479 13.068 22.4479H29.468C30.119 22.4479 30.6467 21.9201 30.6467 21.2691C30.6467 20.6181 30.119 20.0904 29.468 20.0904Z" fill="white" stroke="white" stroke-width="0.3075" stroke-linecap="round"/>
</svg>
