<svg width="24" height="24" viewBox="0 0 24 24" fill="none" xmlns="http://www.w3.org/2000/svg">
<path d="M2.31023 14.9698L4.27024 12.6398C4.57024 12.2898 4.57024 11.7098 4.27024 11.3598L2.31023 9.02977C2.04023 8.48977 2.31023 7.82976 2.89023 7.62976L4.22023 7.18977C4.54023 7.07977 5.01023 7.18977 5.25023 7.42977L7.53024 9.69977C7.69024 9.86977 8.01023 9.99977 8.24023 9.99977H11.0902C11.5102 9.99977 11.7102 9.68977 11.5502 9.29977L9.43023 4.38976C9.10023 3.61976 9.51024 2.98977 10.3502 2.98977H11.6402C12.3102 2.98977 13.0802 3.48977 13.3402 4.10977L15.7502 9.69977C15.8202 9.85977 16.0302 9.99977 16.2102 9.99977H19.2102C20.1502 9.99977 21.2602 10.6898 21.6902 11.5298C21.8402 11.8298 21.8402 12.1798 21.6902 12.4798C21.2602 13.3198 20.1402 14.0098 19.2002 14.0098H16.2002C16.0202 14.0098 15.8102 14.1498 15.7402 14.3098L13.3302 19.8898C13.0802 20.5098 12.3102 21.0098 11.6402 21.0098H10.3502C9.51024 21.0098 9.10023 20.3798 9.43023 19.6098L11.5502 14.6998C11.7202 14.3198 11.5102 13.9998 11.0902 13.9998H8.24023C8.01023 13.9998 7.69024 14.1298 7.53024 14.2898L5.25023 16.5598C5.01023 16.7998 4.55023 16.9098 4.22023 16.7998L2.89023 16.3598C2.31023 16.1798 2.03023 15.5198 2.31023 14.9698Z" stroke="#E5A13D" stroke-width="1.5" stroke-linecap="round" stroke-linejoin="round"/>
</svg>
