<svg width="43" height="42" viewBox="0 0 43 42" fill="none" xmlns="http://www.w3.org/2000/svg">
<path d="M41.5393 21.3054C41.4884 21.1981 41.4081 21.1075 41.3077 21.0441C41.2074 20.9806 41.0911 20.947 40.9724 20.947H36.2321L34.9048 19.2035C34.7862 19.0476 34.6015 18.9314 34.4056 18.9314H32.2395L29.1252 15.2663C29.0663 15.1965 28.9929 15.1404 28.9101 15.1019C28.8273 15.0634 28.7371 15.0435 28.6458 15.0435H25.2793L24.526 13.0027C24.406 12.6777 24.0452 12.5111 23.7201 12.6314C23.564 12.6891 23.4372 12.8064 23.3676 12.9575C23.2979 13.1087 23.2912 13.2813 23.3488 13.4374L23.9416 15.0435H21.7028C21.5575 15.0434 21.4166 15.0939 21.3044 15.1862C21.1921 15.2784 21.1154 15.4068 21.0872 15.5494L20.7898 17.0569H13.268L12.9706 15.5494C12.9425 15.4069 12.8657 15.2785 12.7535 15.1862C12.6412 15.0939 12.5004 15.0435 12.3551 15.0435H9.59653V12.8911C9.59653 12.7247 9.53042 12.5651 9.41275 12.4474C9.29509 12.3298 9.1355 12.2637 8.96909 12.2637H7.48876C7.36466 12.2637 7.24334 12.3005 7.14016 12.3694C7.03698 12.4384 6.95656 12.5364 6.90909 12.651L5.91815 15.0435H3.47935C3.33609 15.0435 3.19714 15.0925 3.0856 15.1824C2.97406 15.2723 2.89664 15.3976 2.86621 15.5376L1.58315 21.4423C1.57379 21.4857 1.56905 21.53 1.56901 21.5743V25.4743C1.56901 25.6493 1.64213 25.8164 1.77063 25.9352L2.76005 26.8495H1.81396C1.46745 26.8495 1.18652 27.1303 1.18652 27.4769C1.18652 27.8235 1.46745 28.1044 1.81396 28.1044H39.4813C39.8278 28.1044 40.1087 27.8235 40.1087 27.4769C40.1087 27.1303 39.8278 26.8495 39.4813 26.8495H37.4766L41.4585 21.9711C41.5335 21.8792 41.5809 21.7678 41.5953 21.65C41.6096 21.5321 41.5901 21.4126 41.5393 21.3054ZM28.3543 16.2983L28.9948 17.0572H27.3916C27.0451 17.0572 26.7641 17.338 26.7641 17.6846C26.7641 18.0312 27.0451 18.3121 27.3916 18.3121H30.0539L30.5766 18.9313H24.1417C23.7952 18.9313 23.5143 19.2122 23.5143 19.5588C23.5143 19.9054 23.7952 20.1862 24.1417 20.1862H34.0948L34.655 20.9469H24.5542C24.3878 20.9469 24.2282 21.013 24.1106 21.1307C23.9929 21.2483 23.9268 21.4079 23.9268 21.5743V22.2974H12.0227V21.5743C12.0227 21.4079 11.9566 21.2483 11.8389 21.1307C11.7213 21.013 11.5617 20.9469 11.3953 20.9469H2.9748L3.54736 18.3121H12.7071C12.7156 18.3121 12.7239 18.3112 12.7325 18.3108C12.7391 18.3111 12.7456 18.3117 12.7522 18.3117L24.3706 18.3121C24.537 18.3121 24.6966 18.246 24.8143 18.1283C24.9319 18.0107 24.9981 17.8511 24.9981 17.6847C24.9981 17.5183 24.932 17.3587 24.8143 17.241C24.6967 17.1233 24.5371 17.0572 24.3707 17.0572L22.0686 17.0569L22.2183 16.2983L28.3543 16.2983ZM7.90797 13.5186H8.34174V15.0436H7.27635L7.90797 13.5186ZM6.33728 16.2983H11.8393L11.9891 17.0572H3.82017L3.98506 16.2983H6.33728ZM35.8568 26.8495H4.60899L2.8238 25.1998V22.2018H10.7678V22.9248C10.7678 23.0912 10.8339 23.2508 10.9516 23.3685C11.0693 23.4862 11.2289 23.5523 11.3953 23.5523H24.5541C24.7205 23.5523 24.8801 23.4862 24.9978 23.3685C25.1155 23.2508 25.1816 23.0912 25.1816 22.9248V22.2018H39.6503L35.8568 26.8495Z" fill="#1C1C1C"/>
<path d="M22.6215 18.9312H14.1127C13.7661 18.9312 13.4852 19.212 13.4852 19.5586C13.4852 19.9052 13.7661 20.186 14.1127 20.186H22.6215C22.968 20.186 23.2489 19.9052 23.2489 19.5586C23.2489 19.212 22.968 18.9312 22.6215 18.9312ZM21.6887 20.6852H15.0455C14.699 20.6852 14.4181 20.9661 14.4181 21.3127C14.4181 21.6593 14.699 21.9401 15.0455 21.9401H21.6887C22.0352 21.9401 22.3161 21.6593 22.3161 21.3127C22.3161 20.9661 22.0352 20.6852 21.6887 20.6852ZM12.1066 18.9312H5.32184C4.97532 18.9312 4.6944 19.212 4.6944 19.5586C4.6944 19.9052 4.97532 20.186 5.32184 20.186H12.1066C12.4531 20.186 12.734 19.9052 12.734 19.5586C12.734 19.212 12.4531 18.9312 12.1066 18.9312ZM36.0271 23.881H36.8496C37.1961 23.881 37.477 23.6001 37.477 23.2535C37.477 22.9069 37.1961 22.6261 36.8496 22.6261H36.0271C35.6806 22.6261 35.3997 22.9069 35.3997 23.2535C35.3997 23.6001 35.6806 23.881 36.0271 23.881ZM39.4813 28.481H1.81396C1.46745 28.481 1.18652 28.7618 1.18652 29.1084C1.18652 29.455 1.46745 29.7359 1.81396 29.7359H39.4813C39.8278 29.7359 40.1087 29.455 40.1087 29.1084C40.1087 28.7618 39.8279 28.481 39.4813 28.481Z" fill="#1C1C1C"/>
</svg>
