<svg width="42" height="42" viewBox="0 0 42 42" fill="none" xmlns="http://www.w3.org/2000/svg">
<g clip-path="url(#clip0_4013_4530)">
<path d="M13.3459 20.1734C13.833 20.1734 14.2295 19.777 14.2295 19.2898V14.7288C14.2295 14.2416 13.8331 13.8452 13.3459 13.8452H5.53981C5.50938 13.8452 5.47927 13.8468 5.44957 13.8498C5.00464 13.8952 4.65625 14.272 4.65625 14.7288V19.2898C4.65625 19.777 5.05263 20.1734 5.53981 20.1734H9.48051H13.3459ZM12.9989 18.9429H10.0957V15.0758H12.9989V18.9429ZM5.88672 18.9429V15.0758H8.86527V18.9429H5.88672ZM23.8303 19.8294C23.9133 19.7225 23.9704 19.598 23.9973 19.4654C24.0241 19.3328 24.02 19.1958 23.9851 19.0651L22.7857 14.5041C22.736 14.3154 22.6253 14.1484 22.4707 14.0292C22.3161 13.91 22.1265 13.8454 21.9313 13.8453H18.5074C18.0203 13.8453 17.6238 14.2417 17.6238 14.7289V19.2899C17.6238 19.7771 18.0202 20.1734 18.5074 20.1734H23.1307C23.2659 20.1738 23.3994 20.143 23.5208 20.0833C23.6421 20.0236 23.7481 19.9367 23.8303 19.8294ZM18.8542 18.9429V15.0758H21.6637L22.6806 18.9429H18.8542ZM18.239 20.7673C17.8991 20.7673 17.6237 21.0428 17.6237 21.3826C17.6237 21.7223 17.8991 21.9978 18.239 21.9978H19.9382C20.278 21.9978 20.5534 21.7223 20.5534 21.3826C20.5534 21.0428 20.278 20.7673 19.9382 20.7673H18.239Z" fill="black"/>
<path d="M41.5361 32.8867L37.3275 30.0117C37.2537 29.9613 37.1786 29.9135 37.1038 29.8649H38.1824C38.7683 29.8649 39.2448 29.3883 39.2448 28.8025V24.3504C39.2448 23.7646 38.7682 23.288 38.1824 23.288H36.8409C36.255 23.288 35.7785 23.7646 35.7785 24.3504V25.6133H35.0415V20.4526C35.0415 19.6202 34.3644 18.943 33.532 18.943H29.9414C29.6015 18.943 29.3262 19.2185 29.3262 19.5582C29.3262 19.898 29.6015 20.1735 29.9414 20.1735H31.1282V21.7046C31.1282 22.7836 32.006 23.6613 33.0849 23.6613H33.8112V25.6133H32.2498C31.4259 24.2023 29.8962 23.2515 28.1477 23.2515C26.3993 23.2515 24.8696 24.2023 24.0457 25.6133H16.6187V12.84H22.8279C22.9883 12.8401 23.1442 12.8932 23.2713 12.9912C23.3983 13.0892 23.4894 13.2264 23.5302 13.3815L25.1079 19.3811C25.1676 19.608 25.3008 19.8089 25.4867 19.9522C25.6725 20.0955 25.9006 20.1733 26.1353 20.1734H27.0701C27.41 20.1734 27.6854 19.8979 27.6854 19.5582C27.6854 19.2184 27.41 18.9429 27.0701 18.9429H26.2649L24.7202 13.0687C24.4943 12.2096 23.7161 11.6096 22.8279 11.6096H21.0399V10.908H22.8341C23.7402 10.908 24.4774 10.1708 24.4774 9.26472C24.4774 8.35861 23.7402 7.62147 22.8341 7.62147H21.0161C20.9431 7.36332 20.7062 7.17383 20.4246 7.17383C20.143 7.17383 19.9062 7.36324 19.8331 7.62147H16.3657C16.2926 7.36332 16.0558 7.17383 15.7742 7.17383C15.4926 7.17383 15.2558 7.36324 15.1827 7.62147H11.7152C11.6421 7.36332 11.4053 7.17383 11.1237 7.17383C10.8421 7.17383 10.6052 7.36324 10.5321 7.62147H7.06493C6.99184 7.36332 6.75502 7.17383 6.4734 7.17383C6.19179 7.17383 5.95497 7.36324 5.88188 7.62147H4.0639C3.15778 7.62147 2.42065 8.35861 2.42065 9.26472C2.42065 10.1708 3.15778 10.908 4.0639 10.908H5.85817V11.6096H4.37734C3.29838 11.6096 2.42057 12.4874 2.42057 13.5664V25.6133H2.32033C1.73446 25.6133 1.25794 26.0899 1.25794 26.6757V28.0172C1.25794 28.603 1.73454 29.0796 2.32033 29.0796H5.01341C5.07769 29.3561 5.16678 29.6263 5.2796 29.8868C4.64473 30.128 4.04062 30.4435 3.47984 30.8266L0.463959 32.8866C0.0767713 33.151 -0.0903264 33.6296 0.0480603 34.0775C0.186447 34.5253 0.594306 34.8263 1.06312 34.8263H5.98819C6.32804 34.8263 6.60342 34.5509 6.60342 34.2111C6.60342 33.8713 6.32804 33.5958 5.98819 33.5958H1.60706L4.1739 31.8424C5.40519 31.0014 6.84419 30.5568 8.33527 30.5568C9.82635 30.5568 11.2654 31.0013 12.4966 31.8424L15.0634 33.5958H8.85912C8.51926 33.5958 8.24388 33.8713 8.24388 34.2111C8.24388 34.5509 8.51926 34.8263 8.85912 34.8263H40.9369C41.1641 34.8271 41.3855 34.7548 41.5683 34.6199C41.7512 34.485 41.8857 34.2948 41.9519 34.0775C42.0198 33.8606 42.016 33.6277 41.9411 33.4133C41.8662 33.1988 41.7242 33.0141 41.5361 32.8867ZM37.009 24.5184H38.0143V28.6344H37.009V24.5184ZM33.0848 22.4307C32.6844 22.4307 32.3585 22.1049 32.3585 21.7045V20.1734H33.5319C33.6059 20.1735 33.6768 20.2029 33.7291 20.2552C33.7815 20.3076 33.8109 20.3785 33.811 20.4525V22.4307H33.0848ZM35.7785 26.8437V27.849H32.8913C32.8811 27.5099 32.8345 27.1728 32.7523 26.8437H35.7785ZM28.1475 24.4818C30.0869 24.4818 31.6647 26.0596 31.6647 27.9989C31.6647 28.0422 31.6628 28.0849 31.6612 28.1278C31.5063 28.1212 31.351 28.1171 31.1953 28.1171C30.8631 28.1171 30.5329 28.1339 30.205 28.1636C30.2094 28.1092 30.2122 28.0544 30.2122 27.9989C30.2122 26.8605 29.286 25.9343 28.1475 25.9343C27.0091 25.9343 26.0829 26.8605 26.0829 27.9989C26.0827 28.4289 26.2176 28.8482 26.4685 29.1973C26.0313 29.4096 25.6088 29.6508 25.2038 29.9193C24.8292 29.3489 24.6299 28.6813 24.6304 27.9989C24.6304 26.0596 26.2082 24.4818 28.1475 24.4818ZM28.9816 27.9989C28.9816 28.1295 28.9506 28.2526 28.897 28.3627C28.489 28.4506 28.0864 28.562 27.6914 28.6965C27.4641 28.5473 27.3133 28.2906 27.3133 27.9989C27.3133 27.539 27.6875 27.1648 28.1475 27.1648C28.6074 27.1648 28.9816 27.539 28.9816 27.9989ZM19.8094 11.6095H16.3895V10.9079H19.8094V11.6095ZM11.739 8.85186H15.159V9.67742H11.739V8.85186ZM10.5085 9.67742H7.08864V8.85186H10.5085V9.67742ZM16.3895 8.85186H19.8094V9.67742H16.3895V8.85186ZM15.159 10.9079V11.6095H11.7391V10.9079H15.159ZM23.2469 9.26464C23.2468 9.37408 23.2032 9.47899 23.1259 9.55638C23.0485 9.63376 22.9436 9.67729 22.8341 9.67742H21.0399V8.85186H22.8341C22.9436 8.85199 23.0485 8.89552 23.1259 8.9729C23.2032 9.05029 23.2468 9.1552 23.2469 9.26464ZM4.0639 9.67742C3.83635 9.67742 3.65112 9.49228 3.65112 9.26464C3.65112 9.037 3.83635 8.85186 4.0639 8.85186H5.85817V9.67742H4.0639ZM7.08864 10.9079H10.5085V11.6095H7.08864V10.9079ZM4.89143 27.849H2.48849V26.8437H5.03047C4.94826 27.1728 4.90164 27.5099 4.89143 27.849ZM3.65104 25.6132V13.5663C3.65104 13.1658 3.97686 12.84 4.37734 12.84H15.3882V25.6131H13.7373C12.9134 24.2021 11.3838 23.2513 9.6353 23.2513C7.8868 23.2513 6.35717 24.2021 5.53324 25.6131H3.65104V25.6132ZM9.63522 28.8332C9.17527 28.8332 8.80104 28.459 8.80104 27.999C8.80104 27.5391 9.17527 27.1648 9.63522 27.1648C10.0952 27.1648 10.4694 27.5391 10.4694 27.999C10.4694 28.459 10.0952 28.8332 9.63522 28.8332ZM12.297 30.2924C11.8234 30.0461 11.3276 29.8447 10.8164 29.6908C11.3499 29.3172 11.6999 28.6983 11.6999 27.9989C11.6999 26.8605 10.7736 25.9343 9.63522 25.9343C8.49679 25.9343 7.57057 26.8605 7.57057 27.9989C7.57057 28.5065 7.75498 28.9714 8.05981 29.3314C7.52485 29.3481 6.99263 29.4147 6.47004 29.5303C6.23797 29.0532 6.1176 28.5296 6.11804 27.999C6.11804 26.0596 7.69583 24.4819 9.63522 24.4819C11.5746 24.4819 13.1523 26.0597 13.1523 27.999C13.1524 28.8751 12.8291 29.6762 12.297 30.2924ZM19.8163 33.5958H17.2449L14.4247 31.6693C16.2454 30.9681 18.3081 31.1868 19.9768 32.3268L20.8254 32.9065L19.8163 33.5958ZM20.6709 31.3108C19.459 30.4828 18.0424 30.0452 16.5745 30.0452C15.5198 30.0446 14.4778 30.2749 13.5217 30.7201C13.8696 30.2253 14.1192 29.6684 14.257 29.0795H15.6678C16.0077 29.0795 16.283 28.804 16.283 28.4642C16.283 28.1244 16.0077 27.849 15.6678 27.849H14.379C14.3688 27.5099 14.3222 27.1728 14.24 26.8437H23.5427C23.4605 27.1728 23.4139 27.5099 23.4037 27.849H18.5389C18.199 27.849 17.9237 28.1244 17.9237 28.4642C17.9237 28.804 18.199 29.0795 18.5389 29.0795H23.5247C23.6526 29.6251 23.8765 30.1436 24.186 30.6107L21.916 32.1614L20.6709 31.3108ZM21.9977 33.5958L25.757 31.0277C27.366 29.9286 29.2466 29.3475 31.1952 29.3475C33.1439 29.3475 35.0244 29.9286 36.6334 31.0277L40.3928 33.5958H21.9977Z" fill="black"/>
</g>
<defs>
<clipPath id="clip0_4013_4530">
<rect width="42" height="42" fill="white"/>
</clipPath>
</defs>
</svg>
