<svg width="25" height="25" viewBox="0 0 25 25" fill="none" xmlns="http://www.w3.org/2000/svg">
<path d="M19.9679 8.71832V13.8683C19.9679 16.9483 18.2079 18.2683 15.5679 18.2683H6.77792C6.32792 18.2683 5.89792 18.2284 5.49792 18.1384C5.24792 18.0984 5.00793 18.0284 4.78793 17.9484C3.28793 17.3884 2.37793 16.0883 2.37793 13.8683V8.71832C2.37793 5.63832 4.13792 4.31836 6.77792 4.31836H15.5679C17.8079 4.31836 19.4179 5.26835 19.8479 7.43835C19.9179 7.83835 19.9679 8.24832 19.9679 8.71832Z" stroke="#E5A13D" stroke-width="1.5" stroke-miterlimit="10" stroke-linecap="round" stroke-linejoin="round"/>
<path d="M22.969 11.7184V16.8685C22.969 19.9485 21.209 21.2684 18.569 21.2684H9.77902C9.03902 21.2684 8.36903 21.1685 7.78903 20.9485C6.59903 20.5085 5.78902 19.5985 5.49902 18.1385C5.89902 18.2285 6.32902 18.2684 6.77902 18.2684H15.569C18.209 18.2684 19.969 16.9485 19.969 13.8685V8.71844C19.969 8.24844 19.929 7.82848 19.849 7.43848C21.749 7.83848 22.969 9.17844 22.969 11.7184Z" stroke="#E5A13D" stroke-width="1.5" stroke-miterlimit="10" stroke-linecap="round" stroke-linejoin="round"/>
<path d="M11.1664 13.9382C12.6244 13.9382 13.8064 12.7562 13.8064 11.2982C13.8064 9.84019 12.6244 8.6582 11.1664 8.6582C9.70835 8.6582 8.52637 9.84019 8.52637 11.2982C8.52637 12.7562 9.70835 13.9382 11.1664 13.9382Z" stroke="#E5A13D" stroke-width="1.5" stroke-miterlimit="10" stroke-linecap="round" stroke-linejoin="round"/>
<path d="M5.44824 9.09863V13.4987" stroke="#E5A13D" stroke-width="1.5" stroke-miterlimit="10" stroke-linecap="round" stroke-linejoin="round"/>
<path d="M16.8896 9.09863V13.4987" stroke="#E5A13D" stroke-width="1.5" stroke-miterlimit="10" stroke-linecap="round" stroke-linejoin="round"/>
</svg>
