<svg width="43" height="42" viewBox="0 0 43 42" fill="none" xmlns="http://www.w3.org/2000/svg">
<g clip-path="url(#clip0_433_2027)">
<path d="M40.1157 28.816C37.8385 28.7438 34.8525 28.7438 31.4007 28.8095L29.9175 26.821H30.4032C30.7575 26.821 31.0397 26.5388 31.0397 26.1845C31.0397 25.8301 30.7575 25.5479 30.4032 25.5479H28.966L28.1916 24.511H28.2966C28.651 24.511 28.9332 24.2288 28.9332 23.8745C28.9332 23.5201 28.651 23.2379 28.2966 23.2379H27.2466L25.396 20.7573C25.3372 20.677 25.2601 20.6118 25.171 20.5673C25.082 20.5228 24.9836 20.5002 24.8841 20.5013H22.8629C22.6529 20.5013 22.456 20.6063 22.3379 20.777C22.2197 20.9476 22.1935 21.1707 22.2722 21.3676L25.2254 28.9801C23.565 29.0392 21.8457 29.1113 20.0804 29.1967L18.5054 26.8867C18.4465 26.8018 18.368 26.7325 18.2766 26.6845C18.1852 26.6365 18.0836 26.6113 17.9804 26.611H16.3463C16.1363 26.611 15.9394 26.716 15.8213 26.8867C15.7032 27.0573 15.6769 27.2804 15.7491 27.4773L16.4841 29.3804L16.1625 29.4001C15.8279 29.4198 15.5588 29.6954 15.5588 30.0367V30.6142H12.1069C8.93723 30.6142 6.35816 28.0351 6.35816 24.8654C6.35816 21.6957 8.93723 19.1167 12.1069 19.1167H33.2907C35.581 19.1167 37.4513 17.2529 37.4513 14.956C37.4513 12.6657 35.5875 10.7954 33.2907 10.7954H20.3363V10.4213C20.7563 10.1588 21.0319 9.7126 21.0319 9.21385V4.12135C21.0319 3.31416 20.3166 2.65791 19.4372 2.65791H14.4563V1.29291C14.4563 0.656348 13.9313 0.131348 13.2816 0.131348H8.14316C7.49348 0.131348 6.96848 0.649785 6.96848 1.29291V2.65791H1.9941C1.11473 2.65791 0.399414 3.31416 0.399414 4.12135V9.21385C0.399414 9.71916 0.675039 10.1588 1.09504 10.4213V14.3326C1.09504 15.1857 1.85629 15.8748 2.79473 15.8748H18.63C19.5685 15.8748 20.3297 15.1792 20.3297 14.3326V12.0751H33.2972C34.063 12.0751 34.7975 12.3793 35.339 12.9208C35.8805 13.4623 36.1847 14.1968 36.1847 14.9626C36.1847 16.5507 34.8919 17.8501 33.2972 17.8501H12.1135C8.2416 17.8501 5.0916 21.0001 5.0916 24.872C5.0916 28.7438 8.2416 31.8938 12.1135 31.8938H15.5654V32.3335C15.5654 32.6682 15.8279 32.9504 16.1691 32.9701L16.4841 32.9898L15.7491 34.8929C15.7128 34.9897 15.7005 35.0938 15.7131 35.1963C15.7257 35.2989 15.7629 35.3969 15.8216 35.4819C15.8802 35.567 15.9586 35.6366 16.0499 35.6849C16.1413 35.7332 16.243 35.7587 16.3463 35.7592H17.9672C18.1772 35.7592 18.3741 35.6542 18.4922 35.4835L20.0672 33.1735C21.8325 33.2588 23.5519 33.331 25.2122 33.3901L22.2591 41.0026C22.2207 41.0988 22.2065 41.2029 22.2178 41.3058C22.2291 41.4088 22.2656 41.5073 22.3239 41.5929C22.3822 41.6785 22.4607 41.7484 22.5524 41.7965C22.6441 41.8446 22.7462 41.8694 22.8497 41.8688H24.871C25.0744 41.8688 25.2582 41.777 25.3829 41.6129L27.2335 39.1323H28.2835C28.6379 39.1323 28.92 38.8501 28.92 38.4957C28.92 38.1413 28.6379 37.8592 28.2835 37.8592H28.1785L28.9529 36.8288H30.39C30.7444 36.8288 31.0266 36.5467 31.0266 36.1923C31.0266 35.8379 30.7444 35.5557 30.39 35.5557H29.9044L31.3875 33.5673C33.0741 33.6001 34.6491 33.6198 36.0797 33.6198C37.5825 33.6198 38.941 33.6001 40.1025 33.5607C40.7171 33.5421 41.3 33.2838 41.7267 32.8412C42.1535 32.3985 42.3902 31.8065 42.3863 31.1917C42.3957 30.5768 42.1628 29.983 41.7379 29.5384C41.313 29.0939 40.7303 28.8344 40.1157 28.816ZM8.2416 1.40447H13.1897V2.65135H8.2416V1.40447ZM1.67254 4.12135C1.67254 4.0426 1.79723 3.93104 1.9941 3.93104H19.4438C19.6407 3.93104 19.7654 4.0426 19.7654 4.12135V9.21385C19.7654 9.27291 19.6997 9.33854 19.6013 9.37791C19.5619 9.38447 19.516 9.39104 19.4832 9.40416C19.47 9.40416 19.4635 9.41072 19.4504 9.41072H12.4285V8.74791C12.4285 8.39354 12.1463 8.11135 11.7919 8.11135H9.65254C9.29816 8.11135 9.01598 8.39354 9.01598 8.74791V9.41072H1.9941C1.98098 9.41072 1.96785 9.40416 1.95473 9.40416C1.92191 9.39104 1.87598 9.38447 1.84316 9.37791C1.73816 9.33854 1.6791 9.27291 1.6791 9.21385V4.12135H1.67254ZM10.2891 9.37791H11.1488V10.8282L10.7157 11.071L10.2891 10.8282V9.37791ZM19.0632 14.3326C19.0632 14.4638 18.8794 14.6017 18.6366 14.6017H2.80129C2.55848 14.6082 2.36816 14.4638 2.36816 14.3326V10.6773H9.00941V11.2023C9.00941 11.432 9.1341 11.642 9.33754 11.7601L10.4007 12.3573C10.4991 12.4098 10.6041 12.436 10.7091 12.436C10.8141 12.436 10.9257 12.4098 11.0175 12.3573L12.0872 11.7601C12.2907 11.6485 12.4154 11.4385 12.4154 11.2023V10.6773H19.0566V14.3326H19.0632ZM23.7882 21.781H24.5625L29.8322 28.8423C28.7757 28.8685 27.6863 28.9013 26.5641 28.9407L23.7882 21.781ZM17.2782 27.8907H17.6325L18.5775 29.2754L17.8229 29.3148L17.2782 27.8907ZM17.6325 34.486H17.2782L17.8294 33.062L18.5841 33.1013L17.6325 34.486ZM24.5625 40.5957H23.7882L26.5641 33.436C27.6863 33.4754 28.7822 33.5082 29.8322 33.5345L24.5625 40.5957ZM40.0697 32.2876C34.9969 32.4517 26.3475 32.2482 16.8385 31.7363V30.647C26.341 30.1351 34.9904 29.9251 40.0697 30.0957C40.6604 30.1154 41.1263 30.5945 41.1263 31.1917C41.1263 31.7823 40.6604 32.2679 40.0697 32.2876Z" fill="#1C1C1C"/>
</g>
<defs>
<clipPath id="clip0_433_2027">
<rect width="42" height="42" fill="white" transform="translate(0.392578)"/>
</clipPath>
</defs>
</svg>
